<?xml version="1.0" encoding="UTF-8"?>
<svg id="Layer_3" xmlns="http://www.w3.org/2000/svg" viewBox="0 0 605.33 166.2">
  <defs>
    <style>
      .cls-1 {
        fill: #624638;
      }

      .cls-2 {
        fill: #3b2518;
      }

      .cls-3 {
        fill: #b0875a;
      }

      .cls-4 {
        fill: #8d6847;
      }
    </style>
  </defs>
  <path class="cls-3" d="M75.46,19.3l-4.29,113.74h-2.5l-5.06-114.9c-.53-11.95-13.52-19.33-23.9-13.37C16.26,18.23,0,47.53,0,81.54c0,46.76,30.74,84.67,68.67,84.67s68.67-37.91,68.67-84.67c0-32.82-15.15-61.27-37.29-75.31-10.43-6.62-24.12.73-24.59,13.07Z"/>
  <g>
    <path class="cls-4" d="M218.17,15.24c0-9.96-10.48-16.6-19.39-12.13-25.09,12.6-42.78,42.96-42.78,78.43s17.69,65.83,42.78,78.43c8.9,4.47,19.39-2.17,19.39-12.13V15.24Z"/>
    <path class="cls-4" d="M232.17,15.76v131.54c0,10.22,10.91,16.7,19.91,11.87,24.28-13.05,41.26-42.9,41.26-77.64S276.36,16.94,252.07,3.89c-9-4.83-19.91,1.65-19.91,11.87Z"/>
  </g>
  <g>
    <path class="cls-1" d="M380.72,166.2c3.04,0,5.66-2.18,6.35-5.14,1.19-5.11,1.75-10.36,1.57-15.68-.9-26.42-19.21-48.88-26.2-74.37-2.53-9.22-3.55-18.79-4.21-28.33-.91-13.08-1.12-26.43,2.35-39.08.31-1.14.67-2.27,1.05-3.39-28.65,10.19-49.61,42.73-49.61,81.34,0,46.76,30.74,84.67,68.67,84.67h.05Z"/>
    <path class="cls-1" d="M410.48,5.27c-14.49-8.62-33.35-.23-36.83,16.27-1.2,5.67-1.83,11.46-1.86,17.26-.03,6.22.62,12.5,2.65,18.38,2.31,6.69,6.3,12.64,9.82,18.79,11.08,19.34,17.64,41.26,19.02,63.51.46,7.51.3,15.21-1.27,22.53,27.48-11.07,47.33-42.9,47.33-80.48,0-33.59-15.86-62.59-38.85-76.27Z"/>
  </g>
  <path class="cls-2" d="M545.17,10.48v43.68c0,4.28-3.47,7.75-7.75,7.75h0c-4.28,0-7.75-3.47-7.75-7.75V9.85c0-6.91-6.93-11.66-13.38-9.19-27.97,10.7-48.29,42.86-48.29,80.88s21.21,71.57,50.13,81.55c5.65,1.95,11.54-2.23,11.54-8.2v-47.72c0-4.28,3.47-7.75,7.75-7.75h0c4.28,0,7.75,3.47,7.75,7.75v47.15c0,6.06,6.06,10.28,11.72,8.13,28.05-10.64,48.45-42.83,48.45-80.91s-19.49-68.82-46.57-80.16c-6.46-2.71-13.6,2.1-13.6,9.11Z"/>
</svg>